<?xml version="1.0" encoding="UTF-8" standalone="no"?>
<!-- Created with Inkscape (http://www.inkscape.org/) -->

<svg
   width="512"
   height="512"
   viewBox="0 0 135.46666 135.46667"
   version="1.1"
   id="svg5"
   inkscape:version="1.1.2 (b8e25be833, 2022-02-05)"
   sodipodi:docname="design.svg"
   xmlns:inkscape="http://www.inkscape.org/namespaces/inkscape"
   xmlns:sodipodi="http://sodipodi.sourceforge.net/DTD/sodipodi-0.dtd"
   xmlns="http://www.w3.org/2000/svg"
   xmlns:svg="http://www.w3.org/2000/svg">
  <sodipodi:namedview
     id="namedview7"
     pagecolor="#ffffff"
     bordercolor="#666666"
     borderopacity="1.0"
     inkscape:pageshadow="2"
     inkscape:pageopacity="0.0"
     inkscape:pagecheckerboard="0"
     inkscape:document-units="mm"
     showgrid="true"
     units="px"
     inkscape:snap-global="false"
     inkscape:zoom="0.80250284"
     inkscape:cx="130.21761"
     inkscape:cy="292.83385"
     inkscape:window-width="1920"
     inkscape:window-height="1027"
     inkscape:window-x="-8"
     inkscape:window-y="-8"
     inkscape:window-maximized="1"
     inkscape:current-layer="layer1">
    <inkscape:grid
       type="xygrid"
       id="grid937"
       originx="67.73333"
       originy="67.733335"
       spacingx="6.6145833"
       spacingy="6.6145833" />
  </sodipodi:namedview>
  <defs
     id="defs2" />
  <g
     inkscape:label="Layer 1"
     inkscape:groupmode="layer"
     id="layer1">
    <rect
       style="fill:#dfdfdf;fill-opacity:1;fill-rule:evenodd;stroke:#000000;stroke-width:0.293981"
       id="rect3738"
       width="73.495377"
       height="132.29167"
       x="30.985643"
       y="1.587502"
       ry="7.3495369" />
    <g
       id="g4447"
       transform="matrix(0.53525623,0.18862159,-0.17020043,0.48298202,42.631409,14.608675)">
      <path
         style="fill:#333333;fill-opacity:1;fill-rule:evenodd;stroke:#000000;stroke-width:0.136953"
         d="m 60.491251,36.936747 c 2.081857,7.673955 2.421209,15.658092 3.426429,23.511452 0.434459,4.03835 1.896898,7.91213 4.103705,11.30809 2.078818,3.16253 4.175578,6.32823 6.501438,9.31434 3.29439,3.20235 7.68113,4.90429 11.82219,6.72397 1.65812,0.68863 3.325,1.37826 4.99732,2.01772 2.61663,-1.97816 5.408283,-3.74378 7.891713,-5.88892 0.611267,-0.67202 -0.0247,-1.65516 -0.0153,-2.43173 -1.65951,-9.34496 -4.7727,-18.5289 -9.864723,-26.5706 -2.37597,-3.52385 -4.78015,-7.23116 -8.45254,-9.546444 -6.21331,-3.995757 -13.155332,-6.882586 -20.377889,-8.47103 z"
         id="path3213" />
      <path
         id="path1074"
         style="fill:#b88d44;fill-opacity:1;fill-rule:evenodd;stroke:#000000;stroke-width:0.112419"
         d="m 97.032467,111.58714 c 3.991693,6.41322 8.348933,12.99484 12.908463,19.49826 23.75658,33.86968 96.88104,129.82597 102.52595,125.86648 5.64494,-3.95942 -58.32725,-106.3352 -82.08381,-140.20484 -4.55804,-6.4953 -9.25819,-12.82729 -13.92468,-18.759179 -0.91762,0.879918 -1.88045,1.75433 -2.88215,2.617499 -1.10516,0.94736 -2.25396,1.87827 -3.43731,2.78537 -1.18327,0.90716 -2.39795,1.78811 -3.63444,2.63587 -1.23654,0.84772 -2.4916,1.65999 -3.75522,2.43039 -1.26354,0.77044 -2.53232,1.49697 -3.796273,2.17383 -0.64339,0.33274 -1.284008,0.65174 -1.92053,0.95632 z"
         sodipodi:nodetypes="ccccccccccc" />
      <path
         id="path1817"
         style="fill:#7e7e7e;fill-opacity:1;fill-rule:evenodd;stroke:#000000;stroke-width:0.116068"
         d="m 81.390823,87.272009 c 2.382653,4.393005 12.235889,18.893981 15.167323,23.708361 9.309864,-5.83223 12.691574,-8.30867 18.737854,-14.366005 -3.52085,-4.38634 -13.20902,-17.753253 -16.521821,-21.483456 -0.195289,0.194952 -0.393556,0.389778 -0.594703,0.58438 -1.069764,1.031482 -2.217049,2.053386 -3.42572,3.05134 -1.208713,0.997965 -2.473105,1.967266 -3.775393,2.89427 -1.302276,0.927011 -2.636303,1.807351 -3.98332,2.62864 -1.347036,0.821278 -2.700699,1.579623 -4.04195,2.26437 -0.524943,0.251948 -1.046079,0.491491 -1.56226,0.7181 z"
         sodipodi:nodetypes="sccccssscss" />
      <path
         id="path1820"
         style="fill:#7e7e7e;fill-opacity:1;fill-rule:evenodd;stroke:#000000;stroke-width:0.121839"
         d="m 96.717777,112.86854 a 12.183895,33.505709 54.953733 0 0 2.08145,-1.03646 12.183895,33.505709 54.953733 0 0 4.114363,-2.35597 12.183895,33.505709 54.953733 0 0 4.06987,-2.63404 12.183895,33.505709 54.953733 0 0 3.93897,-2.85672 12.183895,33.505709 54.953733 0 0 3.72532,-3.01877 12.183895,33.505709 54.953733 0 0 3.12365,-2.836819 81.184653,13.530775 54.953733 0 0 -2.5623,-3.22871 12.183894,33.505709 54.953733 0 1 -3.45639,3.11293 12.183894,33.505709 54.953733 0 1 -4.31617,3.415459 12.183894,33.505709 54.953733 0 1 -4.56505,3.18081 12.183894,33.505709 54.953733 0 1 -4.687853,2.85821 12.183894,33.505709 54.953733 0 1 -3.62299,1.90115 81.184653,13.530775 54.953733 0 0 2.15714,3.49895 z" />
      <path
         id="path1814"
         style="fill:#7e7e7e;fill-opacity:1;fill-rule:evenodd;stroke:#000000;stroke-width:0.121839"
         d="m 81.106483,87.784449 a 9.4318776,25.937664 54.953733 0 0 1.63995,-0.75381 9.4318776,25.937664 54.953733 0 0 4.24292,-2.37696 9.4318776,25.937664 54.953733 0 0 4.18139,-2.75935 9.4318776,25.937664 54.953733 0 0 3.963123,-3.03818 9.4318776,25.937664 54.953733 0 0 3.596063,-3.20306 9.4318776,25.937664 54.953733 0 0 0.624267,-0.61344 81.184653,13.530775 54.953733 0 0 -1.76528,-1.96934 9.4318776,25.937664 54.953733 0 1 -0.39821,0.38832 9.4318776,25.937664 54.953733 0 1 -1.90752,1.76058 9.4318776,25.937664 54.953733 0 1 -2.035783,1.72732 9.4318776,25.937664 54.953733 0 1 -2.1416,1.67508 9.4318776,25.937664 54.953733 0 1 -2.22291,1.60392 9.4318776,25.937664 54.953733 0 1 -2.27972,1.51505 9.4318776,25.937664 54.953733 0 1 -2.31083,1.40894 9.4318776,25.937664 54.953733 0 1 -2.31629,1.28721 9.4318776,25.937664 54.953733 0 1 -2.10046,1.05328 81.184653,13.530775 54.953733 0 0 1.2309,2.29444 z" />
    </g>
  </g>
</svg>
