<?xml version="1.0" encoding="UTF-8" standalone="no"?>
<!-- Created with Inkscape (http://www.inkscape.org/) -->

<svg
   width="1024"
   height="1024"
   viewBox="0 0 270.93332 270.93333"
   version="1.1"
   id="svg5"
   inkscape:version="1.1.2 (b8e25be833, 2022-02-05)"
   sodipodi:docname="gear.svg"
   xmlns:inkscape="http://www.inkscape.org/namespaces/inkscape"
   xmlns:sodipodi="http://sodipodi.sourceforge.net/DTD/sodipodi-0.dtd"
   xmlns="http://www.w3.org/2000/svg"
   xmlns:svg="http://www.w3.org/2000/svg">
  <sodipodi:namedview
     id="namedview7"
     pagecolor="#ffffff"
     bordercolor="#666666"
     borderopacity="1.0"
     inkscape:pageshadow="2"
     inkscape:pageopacity="0.0"
     inkscape:pagecheckerboard="0"
     inkscape:document-units="mm"
     showgrid="true"
     units="px"
     inkscape:zoom="0.5297696"
     inkscape:cx="319.95041"
     inkscape:cy="481.34132"
     inkscape:window-width="1920"
     inkscape:window-height="1027"
     inkscape:window-x="-8"
     inkscape:window-y="-8"
     inkscape:window-maximized="1"
     inkscape:current-layer="layer1" />
  <defs
     id="defs2" />
  <g
     inkscape:label="Layer 1"
     inkscape:groupmode="layer"
     id="layer1">
    <path
       id="path1398"
       style="fill:#9a9a9a;fill-opacity:1;fill-rule:evenodd;stroke:#000000;stroke-width:3.8211"
       d="M 512 6.5 A 505.50032 505.50032 0 0 0 455.40234 10.033203 L 444.16211 112.8457 A 405.09305 405.09305 0 0 0 371.16992 132.40234 L 310.03125 48.986328 A 505.50032 505.50032 0 0 0 212 105.58398 L 253.67188 200.24023 A 405.09305 405.09305 0 0 0 200.24023 253.67188 L 105.58398 212 A 505.50032 505.50032 0 0 0 48.986328 310.03125 L 132.40234 371.16992 A 405.09305 405.09305 0 0 0 112.8457 444.16211 L 10.033203 455.40234 A 505.50032 505.50032 0 0 0 6.5 512 A 505.50032 505.50032 0 0 0 10.033203 568.59766 L 112.8457 579.83789 A 405.09305 405.09305 0 0 0 132.40234 652.83008 L 48.986328 713.96875 A 505.50032 505.50032 0 0 0 105.58398 812 L 200.24023 770.32812 A 405.09305 405.09305 0 0 0 253.67188 823.75977 L 212 918.41602 A 505.50032 505.50032 0 0 0 310.03125 975.01367 L 371.16992 891.59766 A 405.09305 405.09305 0 0 0 444.16211 911.1543 L 455.40234 1013.9668 A 505.50032 505.50032 0 0 0 512 1017.5 A 505.50032 505.50032 0 0 0 568.59766 1013.9668 L 579.83789 911.1543 A 405.09305 405.09305 0 0 0 652.83008 891.59766 L 713.96875 975.01367 A 505.50032 505.50032 0 0 0 812 918.41602 L 770.32812 823.75977 A 405.09305 405.09305 0 0 0 823.75977 770.32812 L 918.41602 812 A 505.50032 505.50032 0 0 0 975.01367 713.96875 L 891.59766 652.83008 A 405.09305 405.09305 0 0 0 911.1543 579.83789 L 1013.9668 568.59766 A 505.50032 505.50032 0 0 0 1017.5 512 A 505.50032 505.50032 0 0 0 1014.2871 455.4375 L 911.34375 444.18164 A 405.09305 405.09305 0 0 0 891.75977 371.05469 L 975.30664 309.82031 A 505.50032 505.50032 0 0 0 918.71289 211.86914 L 823.94727 253.58789 A 405.09305 405.09305 0 0 0 770.41211 200.05273 L 812.13086 105.28711 A 505.50032 505.50032 0 0 0 714.17773 48.697266 L 652.94531 132.24023 A 405.09305 405.09305 0 0 0 579.81836 112.65625 L 568.5625 9.7128906 A 505.50032 505.50032 0 0 0 512 6.5 z M 512 362 A 150 150 0 0 1 662 512 A 150 150 0 0 1 512 662 A 150 150 0 0 1 362 512 A 150 150 0 0 1 512 362 z "
       transform="scale(0.26458333)" />
    <path
       id="path2554"
       style="fill:#7e7e7e;fill-opacity:1;fill-rule:evenodd;stroke:#000000;stroke-width:0.999999"
       d="M 512 162 A 349.99996 349.99996 0 0 0 162 512 A 349.99996 349.99996 0 0 0 512 862 A 349.99996 349.99996 0 0 0 862 512 A 349.99996 349.99996 0 0 0 512 162 z M 512 312 A 199.99998 199.99998 0 0 1 712 512 A 199.99998 199.99998 0 0 1 512 712 A 199.99998 199.99998 0 0 1 312 512 A 199.99998 199.99998 0 0 1 512 312 z "
       transform="scale(0.26458333)" />
  </g>
</svg>
